<?xml version="1.0" encoding="UTF-8"?>
<svg width="16" height="16" version="1.1" viewBox="0 0 16 16" xmlns="http://www.w3.org/2000/svg" xmlns:cc="http://creativecommons.org/ns#" xmlns:dc="http://purl.org/dc/elements/1.1/" xmlns:rdf="http://www.w3.org/1999/02/22-rdf-syntax-ns#">
 <metadata>
  <rdf:RDF>
   <cc:Work rdf:about="">
    <dc:format>image/svg+xml</dc:format>
    <dc:type rdf:resource="http://purl.org/dc/dcmitype/StillImage"/>
    <dc:title/>
   </cc:Work>
  </rdf:RDF>
 </metadata>
 <path d="m0-8c5.6569-5.6569 18.343-5.6569 24 0 5.6569 5.6569 5.6569 18.343 0 24s-18.343 5.6569-24 0-5.6569-18.343 0-24z" fill="none"/>
 <path d="m10.5 0.5h-9v15h12v-12zm0 11h-2v2h-2v-2h-2v-2h2v-2h2v2h2zm-2-6v-4l4 4z" fill="#c9e6ee" stroke="#000"/>
 <path d="m4.5 9.5h2v-2h2v2h2v2h-2v2h-2v-2h-2z" fill="#97ff5c" fill-rule="evenodd" stroke="#018900"/>
</svg>
