<?xml version="1.0" encoding="UTF-8" standalone="no"?>
<svg
   xmlns:dc="http://purl.org/dc/elements/1.1/"
   xmlns:cc="http://creativecommons.org/ns#"
   xmlns:rdf="http://www.w3.org/1999/02/22-rdf-syntax-ns#"
   xmlns:svg="http://www.w3.org/2000/svg"
   xmlns="http://www.w3.org/2000/svg"
   xmlns:sodipodi="http://sodipodi.sourceforge.net/DTD/sodipodi-0.dtd"
   xmlns:inkscape="http://www.inkscape.org/namespaces/inkscape"
   width="16"
   height="16"
   viewBox="0 0 16 16"
   id="svg2"
   version="1.1"
   inkscape:version="0.91 r13725"
   sodipodi:docname="add_note.svg">
  <metadata
     id="metadata12">
    <rdf:RDF>
      <cc:Work
         rdf:about="">
        <dc:format>image/svg+xml</dc:format>
        <dc:type
           rdf:resource="http://purl.org/dc/dcmitype/StillImage" />
        <dc:title />
      </cc:Work>
    </rdf:RDF>
  </metadata>
  <defs
     id="defs10" />
  <sodipodi:namedview
     pagecolor="#ffffff"
     bordercolor="#666666"
     borderopacity="1"
     objecttolerance="10"
     gridtolerance="10"
     guidetolerance="10"
     inkscape:pageopacity="0"
     inkscape:pageshadow="2"
     inkscape:window-width="1312"
     inkscape:window-height="993"
     id="namedview8"
     showgrid="true"
     inkscape:object-nodes="true"
     inkscape:zoom="44.037039"
     inkscape:cx="4.239277"
     inkscape:cy="7.9330025"
     inkscape:window-x="1519"
     inkscape:window-y="245"
     inkscape:window-maximized="0"
     inkscape:current-layer="svg2"
     inkscape:snap-smooth-nodes="true">
    <inkscape:grid
       type="xygrid"
       id="grid4140"
       originx="0.5"
       originy="0.5" />
  </sodipodi:namedview>
  <path
     d="m 0,-8 c 5.6568542,-5.656854 18.343146,-5.656854 24,0 5.656854,5.6568542 5.656854,18.343146 0,24 C 18.343146,21.656854 5.6568542,21.656854 0,16 -5.6568542,10.343146 -5.6568542,-2.3431458 0,-8 Z"
     id="path4"
     inkscape:connector-curvature="0"
     style="fill:none"
     sodipodi:nodetypes="sssss" />
  <path
     d="m 10.5,0.5 -9,0 0,15 12,0 0,-12 z m 0,11 -2,0 0,2 -2,0 0,-2 -2,0 0,-2 2,0 0,-2 2,0 0,2 2,0 z m -2,-6 0,-4 4,4 z"
     id="path6"
     inkscape:connector-curvature="0"
     style="fill:#c9e6ee;fill-opacity:1;stroke:#000000;stroke-width:1;stroke-miterlimit:4;stroke-dasharray:none;stroke-opacity:1"
     sodipodi:nodetypes="ccccccccccccccccccccccc" />
  <path
     style="fill:#97ff5c;fill-opacity:1;fill-rule:evenodd;stroke:#018900;stroke-width:1;stroke-linecap:butt;stroke-linejoin:miter;stroke-miterlimit:4;stroke-dasharray:none;stroke-opacity:1"
     d="m 4.5,9.5 2,0 0,-2 2,0 0,2 2,0 0,2 -2,0 0,2 -2,0 0,-2 -2,0 z"
     id="path4142"
     inkscape:connector-curvature="0"
     sodipodi:nodetypes="ccccccccccccc" />
</svg>
